<svg id="icon_shopping_bag_20px" data-name="icon_shopping bag_20px" xmlns="http://www.w3.org/2000/svg" xmlns:xlink="http://www.w3.org/1999/xlink" width="20" height="20" viewBox="0 0 20 20">
  <defs>
    <clipPath id="clip-path">
      <rect id="사각형_2" data-name="사각형 2" width="20" height="20"/>
    </clipPath>
  </defs>
  <g id="icon_shopping_bag_20px-2" data-name="icon_shopping bag_20px" clip-path="url(#clip-path)">
    <path id="패스_13" data-name="패스 13" d="M18.333,20H1.667A1.737,1.737,0,0,1,.5,19.571a1.285,1.285,0,0,1-.5-1V5.952a1.285,1.285,0,0,1,.5-1,1.737,1.737,0,0,1,1.167-.429H4.722a4.148,4.148,0,0,1,1.472-3.2A5.287,5.287,0,0,1,9.861,0a5.815,5.815,0,0,1,3.806,1.321,4.009,4.009,0,0,1,1.611,3.2h3.056a1.737,1.737,0,0,1,1.167.429,1.285,1.285,0,0,1,.5,1V18.571a1.285,1.285,0,0,1-.5,1A1.737,1.737,0,0,1,18.333,20M6.389,4.524h7.222a2.79,2.79,0,0,0-1.042-2.2A3.811,3.811,0,0,0,10,1.429a3.811,3.811,0,0,0-2.569.893,2.79,2.79,0,0,0-1.042,2.2M18.333,5.952H1.667V18.571H18.333Zm-16.667,0v0Z" transform="translate(0 0)"/>
  </g>
</svg>
