<svg id="icon_favorite_20px" xmlns="http://www.w3.org/2000/svg" width="21" height="20" viewBox="0 0 21 20">
  <g id="heart" transform="translate(-1.549 -2.998)" fill="none" stroke-linecap="round" stroke-linejoin="round">
    <path d="M20.929,4.766a5.2,5.2,0,0,0-7.816,0L12.048,5.929,10.984,4.766a5.2,5.2,0,0,0-7.816,0,6.434,6.434,0,0,0,0,8.535l1.065,1.163L12.048,23l7.816-8.535L20.929,13.3a6.432,6.432,0,0,0,0-8.535Z" stroke="none"/>
    <path d="M 17.02137756347656 4.498172760009766 C 15.97088813781738 4.498172760009766 14.97593879699707 4.953092575073242 14.21955871582031 5.779392242431641 L 13.15463829040527 6.942203521728516 C 12.87050819396973 7.252452850341797 12.46913814544678 7.429122924804688 12.04843902587891 7.429122924804688 C 11.62773895263672 7.429122924804688 11.22636890411377 7.252452850341797 10.94223880767822 6.942203521728516 L 9.877328872680664 5.779392242431641 C 9.121028900146484 4.953561782836914 8.125988960266113 4.498762130737305 7.075498580932617 4.498762130737305 C 6.025009155273438 4.498762130737305 5.02996826171875 4.953561782836914 4.27366828918457 5.779401779174805 C 3.483737945556641 6.641933441162109 3.048707962036133 7.797622680664062 3.048707962036133 9.03358268737793 C 3.048707962036133 10.2695426940918 3.483749389648438 11.42523288726807 4.27366828918457 12.2877721786499 L 12.04843807220459 20.77720832824707 L 19.82344818115234 12.28750228881836 C 20.61356925964355 11.42516231536865 21.04870796203613 10.26956272125244 21.04870796203613 9.03358268737793 C 21.04870796203613 7.797601699829102 20.61356925964355 6.642002105712891 19.82296752929688 5.779132843017578 C 19.06682968139648 4.953092575073242 18.07186889648438 4.498172760009766 17.02137756347656 4.498172760009766 M 17.0213794708252 2.998174667358398 C 18.43588256835938 2.998174667358398 19.85038757324219 3.587556838989258 20.92940902709961 4.766323089599609 L 20.92941856384277 4.766323089599609 C 23.08847808837891 7.12274169921875 23.08847808837891 10.94442272186279 20.92940902709961 13.30084228515625 L 12.04843902587891 22.99817276000977 L 3.167469024658203 13.30085277557373 C 1.009128570556641 10.94410228729248 1.009119033813477 7.123062133789062 3.167469024658203 4.766323089599609 C 5.325817108154297 2.409572601318359 8.825189590454102 2.409572601318359 10.98352813720703 4.766323089599609 L 12.04843902587891 5.929122924804688 L 13.11335849761963 4.766313552856445 C 14.19237899780273 3.587553024291992 15.60687637329102 2.998172760009766 17.0213794708252 2.998174667358398 Z" stroke="none" fill="#000"/>
  </g>
</svg>
